<svg width="24" height="24" viewBox="0 0 60 60" fill="none" xmlns="http://www.w3.org/2000/svg">
<path d="M45.731 26.5905C42.6228 26.275 40.9228 26.2683 37.9159 26.2683C36.0968 26.2683 34.7733 26.2664 32.802 26.2842C32.4876 26.9271 31.9066 28.7336 31.9066 31.1168C31.9066 33.5 32.4876 35.3064 32.802 35.9494H35.3576C38.5286 35.9494 41.4853 35.8991 43.266 36.0632C44.7821 36.2021 45.995 37.5534 46.1724 38.8796C46.3497 40.1807 46.3683 40.0802 46.359 41.6114C46.3491 43.2069 46.2994 44.1018 46.1115 44.9928C45.8614 46.1834 45.0633 47.1015 44.0403 47.7458C43.0675 48.3517 42.0438 48.7942 41.0075 49.1222C39.4789 49.6025 36.9722 49.9603 35.1895 50.1098C21.7549 51.2363 10.7105 43.6944 10.7105 30.1815C10.7105 18.4539 20.5439 9.68039 32.6855 9.68039C37.8782 9.68039 43.0834 11.3618 46.8235 14.3291C47.4879 14.2861 49.7253 13.2364 51.7118 11.7071C53.298 10.486 54.9311 8.89987 55.131 8.29597C54.9199 8.08033 54.8279 7.96788 54.6631 7.81575C49.8741 3.23319 41.6097 -0.00462522 32.7967 4.95957e-06C13.0716 0.0112497 -0.913606 14.6618 0.0465758 32.2413C0.640155 43.1526 7.00211 51.1847 14.8351 55.756C20.6597 59.1532 27.5835 60.2267 34.3676 59.9615C40.9374 59.6963 48.1305 57.8018 54.233 54.3921L56.3863 53.2147C56.5127 51.3203 56.6351 49.2314 56.6993 46.491C56.7602 43.8518 56.8297 40.059 56.6153 37.521C56.1977 32.3683 51.5305 27.1845 45.731 26.5905Z" fill="white"/>
</svg>
